<?xml version="1.0" encoding="UTF-8"?>
<svg width="131px" height="82px" viewBox="0 0 131 82" version="1.1" xmlns="http://www.w3.org/2000/svg" xmlns:xlink="http://www.w3.org/1999/xlink">
    <!-- Generator: Sketch 56.3 (81716) - https://sketch.com -->
    <title>Group</title>
    <desc>Created with Sketch.</desc>
    <g id="Page-1" stroke="none" stroke-width="1" fill="none" fill-rule="evenodd">
        <g id="Group" transform="translate(-110.000000, -134.000000)">
            <rect id="Rectangle" x="0" y="0" width="350" height="350"></rect>
            <g id="Group-2" transform="translate(110.000000, 134.000000)">
                <path d="M103,77.1961284 C104.684427,77.140431 106.092697,76.6670107 107.224852,75.7758533 C108.357008,74.8846958 109.261338,73.7498795 109.93787,72.3713704 C110.614402,70.9928612 111.097632,69.4472831 111.387574,67.7345899 C111.677516,66.0218967 111.822485,64.3022671 111.822485,62.5756495 L111.822485,55.5160469 C111.822485,52.2020551 112.581846,49.2849506 114.100592,46.764646 C115.619337,44.2443413 117.98026,42.343698 121.183432,41.0626592 C117.98026,39.7537717 115.619337,37.8392043 114.100592,35.3188996 C112.581846,32.798595 111.822485,29.8675664 111.822485,26.5257259 L111.822485,19.4243505 C111.822485,17.7255816 111.732743,16.012914 111.553254,14.2862965 C111.373766,12.5596789 110.987182,11.0071388 110.393491,9.62862965 C109.7998,8.25012046 108.923083,7.11530417 107.763314,6.22414671 C106.603544,5.33298926 105.029596,4.85956897 103.04142,4.80387163 L103.869822,0 C105.775157,0.0556973408 107.480269,0.36202812 108.985207,0.919001528 C110.490146,1.47597494 111.822479,2.22787776 112.982249,3.17473255 C114.142018,4.12158735 115.129187,5.22159333 115.943787,6.47478349 C116.758387,7.72797366 117.428005,9.07165185 117.952663,10.5058584 C118.47732,11.9400649 118.863904,13.4160223 119.112426,14.9337748 C119.360948,16.4515274 119.485207,17.948371 119.485207,19.4243505 L119.485207,26.5257259 C119.485207,30.5637831 120.43786,33.4808876 122.343195,35.2771268 C124.24853,37.0733661 127.134103,37.9714722 131,37.9714722 L131,44.0285278 C127.134103,44.0563764 124.24853,44.9753688 122.343195,46.7855323 C120.43786,48.5956959 119.485207,51.5058383 119.485207,55.5160469 L119.485207,62.5756495 C119.485207,64.8035431 119.181463,67.0522896 118.573964,69.3219562 C117.966466,71.5916228 117.020716,73.6593556 115.736686,75.5252165 C114.452656,77.3910774 112.830385,78.9227313 110.869822,80.1202241 C108.90926,81.317717 106.57595,81.9443027 103.869822,82 L103,77.1961284 Z" id="}" fill="#455450" fill-rule="nonzero"></path>
                <path d="M0,77.1961284 C1.68442657,77.140431 3.09269651,76.6670107 4.22485207,75.7758533 C5.35700763,74.8846958 6.26133784,73.7498795 6.93786982,72.3713704 C7.6144018,70.9928612 8.09763169,69.4472831 8.38757396,67.7345899 C8.67751624,66.0218967 8.82248521,64.3022671 8.82248521,62.5756495 L8.82248521,55.5160469 C8.82248521,52.2020551 9.58184645,49.2849506 11.1005917,46.764646 C12.619337,44.2443413 14.9802601,42.343698 18.183432,41.0626592 C14.9802601,39.7537717 12.619337,37.8392043 11.1005917,35.3188996 C9.58184645,32.798595 8.82248521,29.8675664 8.82248521,26.5257259 L8.82248521,19.4243505 C8.82248521,17.7255816 8.73274251,16.012914 8.55325444,14.2862965 C8.37376636,12.5596789 7.98718246,11.0071388 7.39349112,9.62862965 C6.79979979,8.25012046 5.92308272,7.11530417 4.76331361,6.22414671 C3.6035445,5.33298926 2.02959574,4.85956897 0.0414201183,4.80387163 L0.869822485,0 C2.77515746,0.0556973408 4.48026861,0.36202812 5.9852071,0.919001528 C7.49014559,1.47597494 8.82247941,2.22787776 9.98224852,3.17473255 C11.1420176,4.12158735 12.1291872,5.22159333 12.943787,6.47478349 C13.7583867,7.72797366 14.4280053,9.07165185 14.9526627,10.5058584 C15.4773202,11.9400649 15.8639041,13.4160223 16.112426,14.9337748 C16.360948,16.4515274 16.4852071,17.948371 16.4852071,19.4243505 L16.4852071,26.5257259 C16.4852071,30.5637831 17.4378603,33.4808876 19.3431953,35.2771268 C21.2485302,37.0733661 24.134103,37.9714722 28,37.9714722 L28,44.0285278 C24.134103,44.0563764 21.2485302,44.9753688 19.3431953,46.7855323 C17.4378603,48.5956959 16.4852071,51.5058383 16.4852071,55.5160469 L16.4852071,62.5756495 C16.4852071,64.8035431 16.1814626,67.0522896 15.5739645,69.3219562 C14.9664664,71.5916228 14.0207165,73.6593556 12.7366864,75.5252165 C11.4526563,77.3910774 9.83038456,78.9227313 7.86982249,80.1202241 C5.90926041,81.317717 3.57595041,81.9443027 0.869822485,82 L0,77.1961284 Z" id="}" fill="#455450" fill-rule="nonzero" transform="translate(14.000000, 41.000000) scale(-1, 1) translate(-14.000000, -41.000000) "></path>
                <path d="M100,52.8335592 L100,62 C100,69.7319865 93.7319865,76 86,76 L44,76 C36.2680135,76 30,69.7319865 30,62 L30,51.7473056 C29.636103,49.9426276 28.9970514,48.2817474 28.0828402,46.764646 C26.564095,44.2443413 24.2031718,42.343698 21,41.0626592 C24.2031718,39.7537717 26.564095,37.8392043 28.0828402,35.3188996 C28.9970514,33.8017982 29.636103,32.1358726 30,30.3211038 L30,20 C30,12.2680135 36.2680135,6 44,6 L86,6 C93.7319865,6 100,12.2680135 100,20 L100,29.2282801 C100.305604,31.4719331 101.005799,33.5021286 102.100592,35.3188996 C103.619337,37.8392043 105.98026,39.7537717 109.183432,41.0626592 C105.98026,42.343698 103.619337,44.2443413 102.100592,46.764646 C101.005799,48.581417 100.305604,50.6043771 100,52.8335592 Z" id="Combined-Shape" fill="#61D1B6"></path>
                <path d="M70.5859375,49.40625 C70.5859375,48.898435 70.4980478,48.4231793 70.3222656,47.9804688 C70.1464835,47.5377582 69.8470073,47.1243509 69.4238281,46.7402344 C69.0006489,46.3561179 68.447269,46.0045589 67.7636719,45.6855469 C67.0800747,45.3665349 66.2304738,45.0703139 65.2148438,44.796875 C63.9778584,44.4583316 62.7962296,44.0351588 61.6699219,43.5273438 C60.5436142,43.0195287 59.5507855,42.4075557 58.6914062,41.6914062 C57.832027,40.9752568 57.1451849,40.1419318 56.6308594,39.1914062 C56.1165339,38.2408807 55.859375,37.1471416 55.859375,35.9101562 C55.859375,34.7122336 56.1132787,33.6250049 56.6210938,32.6484375 C57.1289088,31.6718701 57.8320268,30.8385451 58.7304688,30.1484375 C59.6289107,29.4583299 60.690098,28.9277362 61.9140625,28.5566406 C63.138027,28.185545 64.4661387,28 65.8984375,28 C67.3828199,28 68.7402282,28.2148416 69.9707031,28.6445312 C71.201178,29.0742209 72.2591102,29.6764284 73.1445312,30.4511719 C74.0299523,31.2259153 74.7200496,32.1471301 75.2148438,33.2148438 C75.7096379,34.2825574 75.9570312,35.4544207 75.9570312,36.7304688 L70.6054688,36.7304688 C70.579427,36.0924447 70.4654958,35.5065131 70.2636719,34.9726562 C70.0618479,34.4387994 69.7623718,33.9798196 69.3652344,33.5957031 C68.968097,33.2115866 68.4733103,32.9121104 67.8808594,32.6972656 C67.2884085,32.4824208 66.5950561,32.375 65.8007812,32.375 C65.0716109,32.375 64.423831,32.4628897 63.8574219,32.6386719 C63.2910128,32.814454 62.812502,33.0618474 62.421875,33.3808594 C62.031248,33.6998714 61.7350271,34.0774718 61.5332031,34.5136719 C61.3313792,34.949872 61.2304688,35.4218725 61.2304688,35.9296875 C61.2304688,36.4635443 61.363931,36.9453104 61.6308594,37.375 C61.8977878,37.8046896 62.2851537,38.1920556 62.7929688,38.5371094 C63.3007838,38.8821632 63.916012,39.1979152 64.6386719,39.484375 C65.3613317,39.7708348 66.1783809,40.0377592 67.0898438,40.2851562 C68.3919336,40.6627623 69.5898383,41.1249973 70.6835938,41.671875 C71.7773492,42.2187527 72.718095,42.8665327 73.5058594,43.6152344 C74.2936237,44.363936 74.9055968,45.2167921 75.3417969,46.1738281 C75.777997,47.1308642 75.9960938,48.1953066 75.9960938,49.3671875 C75.9960938,50.6171937 75.7454452,51.7272087 75.2441406,52.6972656 C74.742836,53.6673226 74.0494836,54.4876269 73.1640625,55.1582031 C72.2786414,55.8287794 71.2239645,56.3365868 70,56.6816406 C68.7760355,57.0266944 67.4414135,57.1992188 65.9960938,57.1992188 C65.0976518,57.1992188 64.2024784,57.1178394 63.3105469,56.9550781 C62.4186153,56.7923169 61.5657593,56.5416684 60.7519531,56.203125 C59.938147,55.8645816 59.179691,55.4414088 58.4765625,54.9335938 C57.773434,54.4257787 57.1647161,53.8333367 56.6503906,53.15625 C56.1360651,52.4791633 55.7324233,51.7109418 55.4394531,50.8515625 C55.1464829,49.9921832 55,49.0416719 55,48 L60.390625,48 C60.4166668,48.8593793 60.5664049,49.595049 60.8398438,50.2070312 C61.1132826,50.8190135 61.4941382,51.3203105 61.9824219,51.7109375 C62.4707056,52.1015645 63.0566372,52.3880199 63.7402344,52.5703125 C64.4238315,52.7526051 65.1757771,52.84375 65.9960938,52.84375 C66.7252641,52.84375 67.373044,52.7591154 67.9394531,52.5898438 C68.5058622,52.4205721 68.984373,52.1861994 69.375,51.8867188 C69.765627,51.5872381 70.0651031,51.2259136 70.2734375,50.8027344 C70.4817719,50.3795552 70.5859375,49.914065 70.5859375,49.40625 Z" id="S" fill="#455450" fill-rule="nonzero"></path>
            </g>
        </g>
    </g>
</svg>