<?xml version="1.0" encoding="UTF-8"?>
<svg width="131px" height="82px" viewBox="0 0 131 82" version="1.1" xmlns="http://www.w3.org/2000/svg" xmlns:xlink="http://www.w3.org/1999/xlink">
    <!-- Generator: Sketch 56.2 (81672) - https://sketch.com -->
    <title>Group</title>
    <desc>Created with Sketch.</desc>
    <g id="Page-1" stroke="none" stroke-width="1" fill="none" fill-rule="evenodd">
        <g id="Group" transform="translate(-110.000000, -134.000000)">
            <rect id="Rectangle" x="0" y="0" width="350" height="350"></rect>
            <g id="Group-2" transform="translate(110.000000, 134.000000)">
                <path d="M103,77.1961284 C104.684427,77.140431 106.092697,76.6670107 107.224852,75.7758533 C108.357008,74.8846958 109.261338,73.7498795 109.93787,72.3713704 C110.614402,70.9928612 111.097632,69.4472831 111.387574,67.7345899 C111.677516,66.0218967 111.822485,64.3022671 111.822485,62.5756495 L111.822485,55.5160469 C111.822485,52.2020551 112.581846,49.2849506 114.100592,46.764646 C115.619337,44.2443413 117.98026,42.343698 121.183432,41.0626592 C117.98026,39.7537717 115.619337,37.8392043 114.100592,35.3188996 C112.581846,32.798595 111.822485,29.8675664 111.822485,26.5257259 L111.822485,19.4243505 C111.822485,17.7255816 111.732743,16.012914 111.553254,14.2862965 C111.373766,12.5596789 110.987182,11.0071388 110.393491,9.62862965 C109.7998,8.25012046 108.923083,7.11530417 107.763314,6.22414671 C106.603544,5.33298926 105.029596,4.85956897 103.04142,4.80387163 L103.869822,0 C105.775157,0.0556973408 107.480269,0.36202812 108.985207,0.919001528 C110.490146,1.47597494 111.822479,2.22787776 112.982249,3.17473255 C114.142018,4.12158735 115.129187,5.22159333 115.943787,6.47478349 C116.758387,7.72797366 117.428005,9.07165185 117.952663,10.5058584 C118.47732,11.9400649 118.863904,13.4160223 119.112426,14.9337748 C119.360948,16.4515274 119.485207,17.948371 119.485207,19.4243505 L119.485207,26.5257259 C119.485207,30.5637831 120.43786,33.4808876 122.343195,35.2771268 C124.24853,37.0733661 127.134103,37.9714722 131,37.9714722 L131,44.0285278 C127.134103,44.0563764 124.24853,44.9753688 122.343195,46.7855323 C120.43786,48.5956959 119.485207,51.5058383 119.485207,55.5160469 L119.485207,62.5756495 C119.485207,64.8035431 119.181463,67.0522896 118.573964,69.3219562 C117.966466,71.5916228 117.020716,73.6593556 115.736686,75.5252165 C114.452656,77.3910774 112.830385,78.9227313 110.869822,80.1202241 C108.90926,81.317717 106.57595,81.9443027 103.869822,82 L103,77.1961284 Z" id="}" fill="#455450" fill-rule="nonzero"></path>
                <path d="M0,77.1961284 C1.68442657,77.140431 3.09269651,76.6670107 4.22485207,75.7758533 C5.35700763,74.8846958 6.26133784,73.7498795 6.93786982,72.3713704 C7.6144018,70.9928612 8.09763169,69.4472831 8.38757396,67.7345899 C8.67751624,66.0218967 8.82248521,64.3022671 8.82248521,62.5756495 L8.82248521,55.5160469 C8.82248521,52.2020551 9.58184645,49.2849506 11.1005917,46.764646 C12.619337,44.2443413 14.9802601,42.343698 18.183432,41.0626592 C14.9802601,39.7537717 12.619337,37.8392043 11.1005917,35.3188996 C9.58184645,32.798595 8.82248521,29.8675664 8.82248521,26.5257259 L8.82248521,19.4243505 C8.82248521,17.7255816 8.73274251,16.012914 8.55325444,14.2862965 C8.37376636,12.5596789 7.98718246,11.0071388 7.39349112,9.62862965 C6.79979979,8.25012046 5.92308272,7.11530417 4.76331361,6.22414671 C3.6035445,5.33298926 2.02959574,4.85956897 0.0414201183,4.80387163 L0.869822485,0 C2.77515746,0.0556973408 4.48026861,0.36202812 5.9852071,0.919001528 C7.49014559,1.47597494 8.82247941,2.22787776 9.98224852,3.17473255 C11.1420176,4.12158735 12.1291872,5.22159333 12.943787,6.47478349 C13.7583867,7.72797366 14.4280053,9.07165185 14.9526627,10.5058584 C15.4773202,11.9400649 15.8639041,13.4160223 16.112426,14.9337748 C16.360948,16.4515274 16.4852071,17.948371 16.4852071,19.4243505 L16.4852071,26.5257259 C16.4852071,30.5637831 17.4378603,33.4808876 19.3431953,35.2771268 C21.2485302,37.0733661 24.134103,37.9714722 28,37.9714722 L28,44.0285278 C24.134103,44.0563764 21.2485302,44.9753688 19.3431953,46.7855323 C17.4378603,48.5956959 16.4852071,51.5058383 16.4852071,55.5160469 L16.4852071,62.5756495 C16.4852071,64.8035431 16.1814626,67.0522896 15.5739645,69.3219562 C14.9664664,71.5916228 14.0207165,73.6593556 12.7366864,75.5252165 C11.4526563,77.3910774 9.83038456,78.9227313 7.86982249,80.1202241 C5.90926041,81.317717 3.57595041,81.9443027 0.869822485,82 L0,77.1961284 Z" id="}" fill="#455450" fill-rule="nonzero" transform="translate(14.000000, 41.000000) scale(-1, 1) translate(-14.000000, -41.000000) "></path>
                <path d="M100,52.8335592 L100,62 C100,69.7319865 93.7319865,76 86,76 L44,76 C36.2680135,76 30,69.7319865 30,62 L30,51.7473056 C29.636103,49.9426276 28.9970514,48.2817474 28.0828402,46.764646 C26.564095,44.2443413 24.2031718,42.343698 21,41.0626592 C24.2031718,39.7537717 26.564095,37.8392043 28.0828402,35.3188996 C28.9970514,33.8017982 29.636103,32.1358726 30,30.3211038 L30,20 C30,12.2680135 36.2680135,6 44,6 L86,6 C93.7319865,6 100,12.2680135 100,20 L100,29.2282801 C100.305604,31.4719331 101.005799,33.5021286 102.100592,35.3188996 C103.619337,37.8392043 105.98026,39.7537717 109.183432,41.0626592 C105.98026,42.343698 103.619337,44.2443413 102.100592,46.764646 C101.005799,48.581417 100.305604,50.6043771 100,52.8335592 Z" id="Combined-Shape" fill="#61D1B6"></path>
                <text id="S" font-family="RobotoMono-Bold, Roboto Mono" font-size="40" font-weight="bold" fill="#455450">
                    <tspan x="53.4980469" y="57">S</tspan>
                </text>
            </g>
        </g>
    </g>
</svg>